<?xml version="1.0" encoding="UTF-8" standalone="no"?>
<!-- Created with Inkscape (http://www.inkscape.org/) -->

<svg
   width="5330"
   height="3543"
   viewBox="0 0 1410.2291 937.41878"
   version="1.1"
   id="svg5"
   inkscape:version="1.1.2 (0a00cf5339, 2022-02-04)"
   sodipodi:docname="cover.svg"
   xmlns:inkscape="http://www.inkscape.org/namespaces/inkscape"
   xmlns:sodipodi="http://sodipodi.sourceforge.net/DTD/sodipodi-0.dtd"
   xmlns="http://www.w3.org/2000/svg"
   xmlns:svg="http://www.w3.org/2000/svg">
  <sodipodi:namedview
     id="namedview7"
     pagecolor="#ffffff"
     bordercolor="#666666"
     borderopacity="1.0"
     inkscape:pageshadow="2"
     inkscape:pageopacity="0.0"
     inkscape:pagecheckerboard="0"
     inkscape:document-units="px"
     showgrid="false"
     units="px"
     width="5330px"
     height="3543px"
     inkscape:zoom="0.041681821"
     inkscape:cx="-11.995637"
     inkscape:cy="6609.5961"
     inkscape:window-width="1920"
     inkscape:window-height="1043"
     inkscape:window-x="1920"
     inkscape:window-y="0"
     inkscape:window-maximized="1"
     inkscape:current-layer="layer1" />
  <defs
     id="defs2">
    <clipPath
       clipPathUnits="userSpaceOnUse"
       id="clipPath1041">
      <rect
         style="fill:none;stroke:#000000;stroke-width:1.89411;paint-order:markers fill stroke"
         id="rect1043"
         width="348.48358"
         height="540.80768"
         x="1280.5331"
         y="74.967674" />
    </clipPath>
  </defs>
  <g
     inkscape:label="Layer 1"
     inkscape:groupmode="layer"
     id="layer1">
    <g
       id="g923"
       transform="matrix(0,0.15621042,-0.15621042,0,595.1617,0.15621042)">
      <path
         fill="#750787"
         d="M 0,0 H 6000 V 3810 H 0 Z"
         id="path884" />
      <path
         fill="#004dff"
         d="M 0,0 H 6000 V 3175 H 0 Z"
         id="path886" />
      <path
         fill="#008026"
         d="M 0,0 H 6000 V 2540 H 0 Z"
         id="path888" />
      <path
         fill="#ffed00"
         d="M 0,0 H 6000 V 1905 H 0 Z"
         id="path890" />
      <path
         fill="#ff8c00"
         d="M 0,0 H 6000 V 1270 H 0 Z"
         id="path892" />
      <path
         fill="#e40303"
         d="M 0,0 H 6000 V 635 H 0 Z"
         id="path894" />
      <path
         fill="#ffffff"
         d="M -1,960 950,1905 -1,2850 Z"
         id="path896" />
      <path
         fill="#ffafc8"
         d="M -1,960 V 480 L 1420,1905 -1,3330 v -480 l 951,-945 z"
         id="path898" />
      <path
         fill="#74d7ee"
         d="M -1,480 V 0 L 1912,1905 -1,3810 V 3330 L 1420,1905 Z"
         id="path900" />
      <path
         fill="#613915"
         d="M -1,0 1912,1905 -1,3810 H 480 L 2384,1905 480,0 Z"
         id="path902" />
      <path
         d="M 480,0 H 960 L 2864,1905 960,3810 H 480 L 2384,1905 Z"
         id="path904" />
    </g>
  </g>
</svg>
